<svg width="127" height="57" viewBox="0 0 127 57" fill="none" xmlns="http://www.w3.org/2000/svg">
<path fill-rule="evenodd" clip-rule="evenodd" d="M122.256 39.0687C122.256 40.0023 122.975 40.7708 123.888 40.8135C124.801 40.7708 125.519 40.0023 125.519 39.0687C125.519 38.1352 124.801 37.3667 123.888 37.324C122.975 37.3667 122.256 38.1352 122.256 39.0687ZM123.888 37.6273C123.3 37.5746 122.741 37.8954 122.48 38.4352C122.218 38.9751 122.308 39.6235 122.705 40.0684C123.103 40.5133 123.727 40.6636 124.277 40.447C124.827 40.2303 125.191 39.6911 125.193 39.0888C125.222 38.7151 125.098 38.3459 124.851 38.069C124.603 37.7921 124.255 37.6322 123.888 37.6273ZM123.24 40.0644H123.551L123.548 39.2423H123.841L124.328 40.0644H124.685L124.152 39.2204C124.288 39.2227 124.419 39.1668 124.513 39.0661C124.607 38.9654 124.655 38.8292 124.646 38.6906C124.646 38.2996 124.413 38.1388 123.956 38.1388H123.24V40.0644ZM124.346 38.665C124.346 38.9463 124.138 38.9683 123.909 38.9683H123.576V38.4019H123.934L123.967 38.4018C124.148 38.4008 124.346 38.3997 124.346 38.665Z" fill="#0075C9"/>
<path fill-rule="evenodd" clip-rule="evenodd" d="M25.3821 23.1142C25.1996 16.5811 18.9856 12.8615 13.2509 12.8615C5.21592 12.8615 0.0142822 19.1279 0.0142822 26.9982C0.0142822 34.8686 5.2338 41.1277 13.2509 41.1277C19.9908 41.1277 25.01 37.0171 25.3821 30.0273H18.4704C18.2093 33.1404 16.3526 35.0477 13.1042 35.0477C8.63597 35.0477 6.92594 31.0284 6.92594 26.9873C6.92594 22.9461 8.63597 18.9379 13.1042 18.9379C16.0055 18.9379 18.0912 20.3994 18.4704 23.1142H25.3821Z" fill="#0075C9"/>
<path fill-rule="evenodd" clip-rule="evenodd" d="M26.255 13.4242H32.5835V40.5613H26.255V13.4242Z" fill="#0075C9"/>
<path fill-rule="evenodd" clip-rule="evenodd" d="M43.0977 24.4625C41.3662 24.4625 40.2322 25.2627 39.9352 26.9398L34.0038 26.9179C34.1111 24.331 35.306 22.6392 37.016 21.6344C38.7261 20.6296 40.962 20.2642 43.155 20.2642C47.7341 20.2642 52.163 21.2946 52.163 26.8777V35.5263C52.163 37.1998 52.163 39.0194 52.9035 40.5833H46.5464C46.3508 39.98 46.2306 39.3539 46.1886 38.7198C44.5466 40.4663 42.1282 41.1569 39.8243 41.1569C36.1467 41.1569 33.2382 39.2533 33.2382 35.1829C33.2382 29.9275 37.8217 29.3044 41.8907 28.7514C42.795 28.6284 43.6739 28.509 44.4715 28.3429C45.5554 28.1163 46.1493 27.7327 46.1493 26.516C46.1493 25.0435 44.4035 24.4625 43.0977 24.4625ZM42.1747 32.4096C40.7652 32.7494 39.5775 33.3596 39.5775 34.9161C39.5775 36.5165 40.7867 37.1596 42.2177 37.1596C45.2335 37.1596 46.2352 35.4204 46.0813 31.35C45.4534 31.7524 44.4571 31.9464 43.4272 32.1469C43.0077 32.2285 42.5827 32.3113 42.1747 32.4096Z" fill="#0075C9"/>
<path fill-rule="evenodd" clip-rule="evenodd" d="M71.7174 20.8342H65.2458L61.5968 33.6885H61.5217L57.8834 20.8342H51.1792L56.1698 34.5508C56.5275 35.614 57.7653 38.654 57.7653 39.7173C57.7653 41.0838 56.6921 41.9096 55.2396 41.9096H53.0466V47.1529H56.0124C60.3053 47.1529 62.5698 46.6158 64.0903 42.2896L71.7174 20.8087V20.8342Z" fill="#0075C9"/>
<path fill-rule="evenodd" clip-rule="evenodd" d="M82.4212 20.8342H78.5039V14.8712H72.1825V20.8342H68.9843V25.0252H72.1825V33.7944C72.1825 39.1583 73.5562 40.7367 78.9546 40.7367C80.1102 40.7367 81.2621 40.5833 82.4212 40.5467V35.7967C81.8595 35.7967 81.2943 35.8698 80.7827 35.8698C79.4018 35.8698 78.5039 35.5337 78.5039 33.9771V25.0252H82.4212V20.8342Z" fill="#0075C9"/>
<path fill-rule="evenodd" clip-rule="evenodd" d="M91.7083 41.1387C85.7196 41.1387 81.5483 36.6481 81.5483 30.7215C81.5483 24.7913 85.7196 20.2679 91.7083 20.2679C97.6969 20.2679 101.9 24.795 101.9 30.7215C101.9 36.6481 97.6969 41.1387 91.7083 41.1387ZM91.7083 25.2115C88.7676 25.2115 87.8732 28.2077 87.8732 30.7215C87.8732 33.239 88.7712 36.2023 91.7083 36.2023C94.6454 36.2023 95.5791 33.2354 95.5791 30.7215C95.5791 28.2077 94.6489 25.2115 91.7083 25.2115Z" fill="#0075C9"/>
<path fill-rule="evenodd" clip-rule="evenodd" d="M102.426 40.565H108.755V29.8008C108.755 27.634 109.8 25.5842 112.179 25.5842C115.642 25.5842 115.341 28.3173 115.341 31.0175V40.5577H121.666V27.9044C121.666 25.0617 121.147 20.2679 114.708 20.2679C112.404 20.2679 109.8 21.5212 108.644 23.5563H108.572V20.8525H102.426V40.5833V40.565Z" fill="#0075C9"/>
<path fill-rule="evenodd" clip-rule="evenodd" d="M41.9243 13.1758L75.2519 0L108.576 13.1758V15.6348L75.2519 8.39654L41.9243 15.6348V13.1758Z" fill="#97D700"/>
<path fill-rule="evenodd" clip-rule="evenodd" d="M69.7534 49.2685C69.4147 49.256 69.0803 49.349 68.7946 49.5352C68.5367 49.7127 68.3214 49.9476 68.165 50.2221C67.9961 50.5091 67.8752 50.8227 67.8073 51.1502C67.7405 51.4808 67.7069 51.8175 67.7071 52.155C67.7073 52.4841 67.7409 52.8122 67.8073 53.1342C67.8684 53.4496 67.9783 53.753 68.1328 54.0331C68.2836 54.3003 68.4946 54.527 68.7481 54.6944C69.03 54.8735 69.3572 54.9637 69.689 54.9539C70.1766 54.9857 70.6551 54.8082 71.0091 54.4642C71.3344 54.1 71.5374 53.6391 71.5886 53.1489H73.9212C73.8339 54.1924 73.3513 55.1599 72.576 55.8454C71.7658 56.4869 70.7598 56.8156 69.7355 56.7735C69.1237 56.7797 68.5164 56.6655 67.9468 56.4373C67.4254 56.2296 66.9534 55.9107 66.5623 55.5019C66.1726 55.091 65.8684 54.6038 65.6679 54.0696C65.4515 53.4862 65.3435 52.8666 65.3495 52.2427C65.3452 51.5925 65.4443 50.9459 65.6429 50.3281C65.8259 49.7638 66.1206 49.2439 66.5086 48.8008C66.8978 48.3659 67.3751 48.023 67.9074 47.796C68.5036 47.5441 69.1441 47.4197 69.7892 47.4306C70.2923 47.4288 70.7933 47.4989 71.2774 47.6389C71.7368 47.766 72.1696 47.9777 72.5546 48.2637C72.9282 48.5441 73.2402 48.9013 73.4704 49.3123C73.7176 49.7674 73.8561 50.2757 73.8746 50.7958H71.5386C71.3633 49.78 70.773 49.2685 69.7534 49.2685Z" fill="#0075C9"/>
<path fill-rule="evenodd" clip-rule="evenodd" d="M77.2876 47.7667C76.204 48.1885 75.3555 49.0737 74.9658 50.1892H74.9551C74.5306 51.4376 74.5306 52.7957 74.9551 54.044C75.1561 54.59 75.4654 55.0876 75.8637 55.5056C76.2645 55.9162 76.7462 56.235 77.2768 56.441C77.8684 56.6649 78.4955 56.7752 79.1264 56.7662C79.7595 56.7745 80.3888 56.6643 80.9831 56.441C81.5206 56.2383 82.0087 55.9192 82.4141 55.5056C82.8135 55.0885 83.123 54.5906 83.3227 54.044C83.7472 52.7957 83.7472 51.4376 83.3227 50.1892C82.9348 49.07 82.0823 48.1833 80.9938 47.7667C80.4012 47.5362 79.7712 47.4222 79.1371 47.4306C78.5053 47.4214 77.8775 47.5355 77.2876 47.7667ZM77.4915 54.0696C77.3201 53.7905 77.199 53.4824 77.1337 53.1598H77.1409C77.0724 52.817 77.0365 52.4683 77.0336 52.1184C77.0345 51.7677 77.068 51.4178 77.1337 51.0734C77.1964 50.7501 77.3178 50.4415 77.4915 50.1636C77.8405 49.5769 78.4766 49.2331 79.1479 49.2685C79.5022 49.2568 79.8531 49.3426 80.1639 49.5169C80.4306 49.6745 80.6554 49.8966 80.8185 50.1636C80.9922 50.4415 81.1136 50.7501 81.1763 51.0734C81.2438 51.4175 81.2773 51.7676 81.2764 52.1184C81.2777 52.4681 81.2441 52.817 81.1763 53.1598C81.111 53.4824 80.9899 53.7905 80.8185 54.0696C80.6572 54.3372 80.4319 54.5585 80.1639 54.7127C79.8518 54.8828 79.5014 54.966 79.1479 54.9538C78.7965 54.9669 78.4482 54.8837 78.139 54.7127C77.8745 54.5563 77.652 54.3353 77.4915 54.0696Z" fill="#0075C9"/>
<path fill-rule="evenodd" clip-rule="evenodd" d="M86.8 47.6717V48.9067H86.8501C87.1242 48.4213 87.534 48.0307 88.0271 47.785C88.4871 47.5495 88.9937 47.4246 89.5082 47.4196C90.0437 47.4025 90.5774 47.4931 91.0787 47.6863C91.4586 47.8396 91.7928 48.0915 92.0482 48.4171C92.2943 48.7586 92.4629 49.1517 92.5418 49.568C92.6418 50.062 92.6898 50.5654 92.6849 51.0698V56.5505H90.2988V51.5375C90.3349 50.9695 90.2186 50.4023 89.9625 49.8969C89.688 49.5108 89.2321 49.3044 88.7676 49.3561C88.2303 49.3066 87.7031 49.5275 87.3545 49.948C87.0636 50.3427 86.9181 50.9918 86.9181 51.8955V56.5505H84.5319V47.6717H86.8Z" fill="#0075C9"/>
<path fill-rule="evenodd" clip-rule="evenodd" d="M96.4198 47.6717V48.9067H96.4591C96.7332 48.4213 97.1431 48.0307 97.6361 47.785C98.0961 47.5495 98.6027 47.4246 99.1172 47.4196C99.6528 47.4022 100.186 47.4928 100.688 47.6863C101.068 47.8396 101.402 48.0915 101.657 48.4171C101.903 48.7586 102.072 49.1517 102.151 49.5681C102.251 50.062 102.299 50.5654 102.294 51.0698V56.5506H99.9078V51.5375C99.9439 50.9696 99.8277 50.4023 99.5715 49.8969C99.2971 49.5108 98.8411 49.3044 98.3767 49.3561C97.8393 49.3066 97.3121 49.5275 96.9636 49.9481C96.675 50.3427 96.5295 50.9918 96.5271 51.8956V56.5506H94.1409V47.6717H96.4198Z" fill="#0075C9"/>
<path fill-rule="evenodd" clip-rule="evenodd" d="M108.794 54.5848C107.922 55.1325 106.808 55.0668 106.004 54.4204C105.595 53.9467 105.38 53.3306 105.403 52.6995H111.671C111.717 52.0368 111.66 51.3709 111.502 50.7264C111.357 50.1195 111.097 49.5474 110.737 49.042C110.381 48.5481 109.918 48.1453 109.385 47.8654C108.784 47.5613 108.12 47.4108 107.449 47.427C106.835 47.4223 106.226 47.5467 105.66 47.7923C104.586 48.2515 103.748 49.1483 103.349 50.266C103.131 50.8579 103.022 51.486 103.027 52.1185C103.02 52.7621 103.125 53.4019 103.339 54.0075C103.531 54.5573 103.832 55.0609 104.222 55.4873C104.614 55.9043 105.09 56.2286 105.617 56.4373C106.208 56.6682 106.835 56.7823 107.467 56.7735C108.355 56.8006 109.232 56.5618 109.989 56.0866C110.751 55.5345 111.298 54.726 111.535 53.8029H109.435C109.315 54.1305 109.089 54.4063 108.794 54.5848ZM107.399 49.2685C107.882 49.2296 108.358 49.4054 108.705 49.7508C109.026 50.1548 109.232 50.6416 109.299 51.1575H105.417C105.433 50.9593 105.469 50.7634 105.524 50.5729C105.59 50.347 105.7 50.137 105.846 49.9554C106.011 49.7492 106.217 49.5821 106.451 49.4658C106.747 49.3245 107.072 49.2569 107.399 49.2685Z" fill="#0075C9"/>
<path fill-rule="evenodd" clip-rule="evenodd" d="M116.915 49.2685C116.576 49.2565 116.242 49.3495 115.956 49.5352C115.699 49.7138 115.484 49.9484 115.327 50.2221C115.158 50.509 115.037 50.8227 114.969 51.1502C114.902 51.4808 114.869 51.8175 114.869 52.155C114.869 52.4841 114.903 52.8122 114.969 53.1342C115.029 53.4503 115.141 53.754 115.298 54.0331C115.447 54.3009 115.657 54.5278 115.91 54.6944C116.192 54.8735 116.519 54.9637 116.851 54.9539C117.338 54.9857 117.817 54.8082 118.171 54.4642C118.496 54.0999 118.699 53.6391 118.75 53.1489H121.054C120.967 54.1924 120.484 55.1599 119.709 55.8454C118.899 56.4875 117.893 56.8162 116.869 56.7735C116.257 56.7797 115.649 56.6655 115.08 56.4373C114.559 56.2296 114.087 55.9107 113.695 55.5019C113.306 55.0918 113.002 54.6043 112.805 54.0696C112.585 53.4869 112.476 52.867 112.483 52.2427C112.478 51.5922 112.578 50.9452 112.78 50.3281C112.96 49.7624 113.255 49.242 113.645 48.8008C114.033 48.3656 114.509 48.0226 115.041 47.796C115.637 47.5441 116.277 47.4197 116.922 47.4306C117.425 47.4288 117.926 47.4989 118.411 47.6389C118.87 47.766 119.303 47.9777 119.688 48.2637C120.062 48.543 120.374 48.9004 120.603 49.3123C120.851 49.7674 120.989 50.2757 121.008 50.7958H118.672C118.525 49.78 117.924 49.2685 116.915 49.2685Z" fill="#0075C9"/>
<path fill-rule="evenodd" clip-rule="evenodd" d="M126.868 47.6717V49.305H125.118V53.6896C125.034 53.981 125.112 54.2962 125.323 54.511C125.533 54.7259 125.842 54.8061 126.127 54.72C126.263 54.72 126.392 54.72 126.513 54.72C126.634 54.7095 126.753 54.6924 126.871 54.6688V56.5579C126.649 56.5943 126.424 56.6174 126.199 56.6273C125.952 56.6273 125.712 56.6273 125.483 56.6273C125.131 56.6285 124.78 56.6029 124.431 56.5506C124.124 56.5081 123.828 56.4064 123.558 56.2509C123.305 56.1005 123.098 55.8801 122.961 55.6152C122.799 55.2743 122.724 54.8973 122.743 54.519V49.305H121.312V47.6717H122.743V45.0117H125.129V47.6717H126.868Z" fill="#0075C9"/>
</svg>
