<svg xmlns="http://www.w3.org/2000/svg" width="121" height="45" viewBox="0 0 121 45">
    <g fill="#FFFFFE" fill-rule="evenodd">
        <path d="M119.307 38.643c-.942 0-1.611-.704-1.611-1.634 0-.987.744-1.64 1.611-1.64.858 0 1.603.653 1.603 1.64 0 .983-.745 1.634-1.603 1.634zm0-2.989c-.709 0-1.261.557-1.261 1.355 0 .741.482 1.35 1.261 1.35.7 0 1.25-.55 1.25-1.35 0-.798-.55-1.355-1.25-1.355zm-.323 2.289h-.3v-1.81h.687c.438 0 .662.152.662.519 0 .33-.202.465-.472.495l.509.796h-.339l-.467-.772h-.28v.772zm.331-1.028c.222 0 .42-.022.42-.284 0-.22-.213-.246-.394-.246h-.357v.53h.331zM24.842 22.033c-.176-6.135-6.134-9.627-11.632-9.627-7.704 0-12.705 5.882-12.705 13.272 0 7.386 5.001 13.274 12.705 13.274 6.462 0 11.275-3.856 11.632-10.42h-6.635c-.248 2.922-2.03 4.713-5.137 4.713-4.284 0-5.925-3.786-5.925-7.567 0-3.782 1.64-7.567 5.925-7.567 2.78 0 4.78 1.356 5.137 3.922h6.635M25.681 38.414h6.067V12.936H25.68zM38.789 25.604c.287-1.571 1.357-2.324 3.033-2.324 1.253 0 2.927.546 2.927 1.928 0 1.143-.569 1.502-1.61 1.716-4.204.856-10.772.39-10.772 6.42 0 3.823 2.789 5.608 6.318 5.608 2.207 0 4.527-.646 6.1-2.286.073.6.143 1.179.36 1.748h6.098c-.71-1.467-.71-3.176-.71-4.748v-8.099c0-5.24-4.25-6.21-8.64-6.21-2.1 0-4.246.36-5.887 1.29-1.637.96-2.784 2.53-2.886 4.957h5.669zm-.352 7.49c0-1.46 1.137-2.032 2.492-2.353 1.325-.357 2.896-.462 3.745-.993.147 3.818-.814 5.453-3.706 5.453-1.357 0-2.531-.603-2.531-2.107z"/>
        <path d="M69.271 19.89h-6.205l-3.499 12.068h-.071l-3.49-12.067H49.58l4.782 12.89c.353.997 1.532 3.848 1.532 4.846 0 1.286-1.033 2.073-2.42 2.073h-2.107v4.924h2.847c4.106 0 6.286-.504 7.745-4.566l7.312-20.167"/>
        <path d="M79.534 19.89h-3.756v-5.596h-6.06v5.597h-3.067v3.935h3.067v8.237c0 5.033 1.318 6.529 6.493 6.529 1.11 0 2.213-.143 3.323-.178v-4.463c-.537 0-1.079.071-1.57.071-1.323 0-2.186-.317-2.186-1.78v-8.416h3.756v-3.935"/>
        <path d="M78.687 29.174c0 5.564 4 9.778 9.743 9.778 5.742 0 9.775-4.214 9.775-9.778 0-5.567-4.033-9.816-9.775-9.816-5.743 0-9.743 4.249-9.743 9.816zm6.067 0c0-2.361.856-5.175 3.676-5.175 2.818 0 3.711 2.814 3.711 5.175 0 2.357-.893 5.137-3.71 5.137-2.821 0-3.677-2.78-3.677-5.137zM98.719 38.414h6.066v-10.1c0-2.034 1-3.956 3.285-3.956 3.318 0 3.031 2.566 3.031 5.101v8.955h6.066V26.53c0-2.67-.499-7.171-6.674-7.171-2.21 0-4.707 1.178-5.814 3.071h-.067v-2.538h-5.893v18.523M40.707 12.703L72.662.333l31.955 12.37v2.308L72.662 8.214 40.707 15.01v-2.308"/>
    </g>
</svg>
