<svg width="31" height="31" viewBox="0 0 31 31" fill="none" xmlns="http://www.w3.org/2000/svg">
<path fill-rule="evenodd" clip-rule="evenodd" d="M20.1076 8.22461H10.892C9.42024 8.22461 8.22449 9.42037 8.22449 10.8921V20.1064C8.22449 21.5782 9.42024 22.7756 10.892 22.7756H20.1076C21.578 22.7756 22.7755 21.5782 22.7755 20.1064V10.8921C22.7755 9.42037 21.578 8.22461 20.1076 8.22461ZM15.4989 20.2898C12.8585 20.2898 10.7086 18.1399 10.7086 15.4995C10.7086 12.8586 12.8585 10.7091 15.4989 10.7091C18.1415 10.7091 20.2893 12.8586 20.2893 15.4995C20.2893 18.1399 18.1397 20.2898 15.4989 20.2898ZM20.4443 11.6995C19.8186 11.6995 19.3105 11.1918 19.3105 10.5662C19.3105 9.94181 19.8186 9.43242 20.4443 9.43242C21.0682 9.43242 21.578 9.94181 21.578 10.5662C21.578 11.1918 21.0682 11.6995 20.4443 11.6995Z" fill="#0175C9"/>
<path fill-rule="evenodd" clip-rule="evenodd" d="M15.4991 12.6528C13.9307 12.6528 12.6531 13.9288 12.6531 15.4991C12.6531 17.0694 13.9307 18.3467 15.4991 18.3467C17.0693 18.3467 18.347 17.0694 18.347 15.4991C18.347 13.9306 17.0693 12.6528 15.4991 12.6528Z" fill="#0175C9"/>
<path fill-rule="evenodd" clip-rule="evenodd" d="M15.4998 0C6.93954 0 0 6.93964 0 15.5C0 24.0604 6.93954 31 15.4998 31C24.06 31 31 24.0604 31 15.5C31 6.93964 24.06 0 15.4998 0ZM24.8242 20.1614C24.8242 22.757 22.7143 24.8664 20.1205 24.8664H10.8808C8.28696 24.8664 6.17582 22.757 6.17582 20.1614V10.9228C6.17582 8.32938 8.28696 6.21779 10.8808 6.21779H20.1205C22.7143 6.21779 24.8242 8.32938 24.8242 10.9228V20.1614Z" fill="#0175C9"/>
</svg>
