<svg width="31" height="31" viewBox="0 0 31 31" fill="none" xmlns="http://www.w3.org/2000/svg">
<path fill-rule="evenodd" clip-rule="evenodd" d="M15.5 31C24.0604 31 31 24.0604 31 15.5C31 6.93959 24.0604 0 15.5 0C6.93959 0 0 6.93959 0 15.5C0 24.0604 6.93959 31 15.5 31Z" fill="#0175C9"/>
<path fill-rule="evenodd" clip-rule="evenodd" d="M25.1875 10.1809C24.5223 10.479 23.8068 10.6806 23.0565 10.7707C23.8226 10.3067 24.4105 9.57261 24.688 8.69643C23.9712 9.12627 23.1768 9.43809 22.3321 9.60617C21.6553 8.87765 20.6911 8.42236 19.6234 8.42236C17.5749 8.42236 15.9134 10.1017 15.9134 12.1723C15.9134 12.4663 15.9463 12.7523 16.0099 13.027C12.9266 12.8706 10.1927 11.3778 8.36275 9.10837C8.04346 9.6621 7.8603 10.3067 7.8603 10.9938C7.8603 12.2945 8.51575 13.4428 9.5107 14.1151C8.90283 14.0958 8.33038 13.9272 7.83041 13.6456C7.83014 13.6615 7.83014 13.6775 7.83014 13.6931C7.83014 15.5101 9.10951 17.0256 10.8064 17.3698C10.4954 17.456 10.167 17.5015 9.82916 17.5015C9.58955 17.5015 9.35742 17.4783 9.13109 17.4347C9.60311 18.9242 10.973 20.0084 12.5968 20.0389C11.3268 21.0448 9.72734 21.6442 7.98868 21.6442C7.68986 21.6442 7.39381 21.6265 7.10413 21.5916C8.74512 22.656 10.6957 23.2765 12.7908 23.2765C19.6148 23.2765 23.3467 17.5625 23.3467 12.6066C23.3467 12.4442 23.3431 12.2822 23.3359 12.1217C24.0614 11.5932 24.6903 10.9329 25.1875 10.1809Z" fill="#F1F2F2"/>
</svg>
